<?xml version="1.0" encoding="UTF-8"?>
<svg id="_Слой_1" data-name="Слой 1" xmlns="http://www.w3.org/2000/svg" viewBox="0 0 564.47 585.87">
  <defs>
    <style>
      .cls-1 {
        fill: none;
        stroke: #000;
        stroke-linecap: round;
        stroke-linejoin: round;
        stroke-width: 10px;
      }
    </style>
  </defs>
  <path d="M290.33,585.87h-17c-2.76,0-5-2.24-5-5v-279h27v279c0,2.76-2.24,5-5,5Z"/>
  <path d="M352.71,249.83c0,38.75-31.73,70.17-70.88,70.17s-70.88-31.42-70.88-70.17h18.84c0,28.74,23.3,52.04,52.04,52.04s52.04-23.3,52.04-52.04h18.84Z"/>
  <path d="M343.14,0h.3c5.11,0,9.27,4.15,9.27,9.27v240.56h-18.84V9.27c0-5.11,4.15-9.27,9.27-9.27Z"/>
  <path d="M220.29,0h.16C225.61,0,229.79,4.18,229.79,9.34v240.49h-18.84V9.34C210.95,4.18,215.14,0,220.29,0Z"/>
  <path class="cls-1" d="M170.39,202.43c-38.14-38.8-37.59-101.16,1.2-139.29"/>
  <path class="cls-1" d="M47.87,237.17C-8.16,182.7-9.43,93.11,45.04,37.08"/>
  <path class="cls-1" d="M109.57,222.07c-46.54-47.35-45.88-123.47,1.47-170.02"/>
  <path class="cls-1" d="M392.88,63.07c38.79,38.13,39.34,100.5,1.2,139.29"/>
  <path class="cls-1" d="M519.43,37.02c54.47,56.03,53.2,145.62-2.83,200.09"/>
  <path class="cls-1" d="M453.43,51.99c47.35,46.54,48.02,122.66,1.47,170.02"/>
</svg>