<?xml version="1.0" encoding="UTF-8"?>
<svg id="_Слой_1" xmlns="http://www.w3.org/2000/svg" version="1.1" viewBox="0 0 564.47 586.37">
  <!-- Generator: Adobe Illustrator 29.8.3, SVG Export Plug-In . SVG Version: 2.1.1 Build 3)  -->
  <defs>
    <style>
      .st0 {
        fill: none;
        stroke-linecap: round;
        stroke-linejoin: round;
        stroke-width: 10px;
      }

      .st0, .st1 {
        stroke: #fff;
      }

      .st1 {
        stroke-miterlimit: 10;
      }

      .st1, .st2 {
        fill: #fff;
      }
    </style>
  </defs>
  <g>
    <path class="st2" d="M273.33,585.87c-2.48,0-4.5-2.02-4.5-4.5v-278.5h26v278.5c0,2.48-2.02,4.5-4.5,4.5h-17Z"/>
    <path class="st2" d="M294.33,303.37v278c0,2.21-1.79,4-4,4h-17c-2.21,0-4-1.79-4-4v-278h25M295.33,302.37h-27v279c0,2.76,2.24,5,5,5h17c2.76,0,5-2.24,5-5v-279h0Z"/>
  </g>
  <path class="st1" d="M352.71,250.33c0,38.75-31.73,70.17-70.88,70.17s-70.88-31.42-70.88-70.17h18.84c0,28.74,23.3,52.04,52.04,52.04s52.04-23.3,52.04-52.04h18.84Z"/>
  <path class="st1" d="M343.14.5h.3c5.11,0,9.27,4.15,9.27,9.27v240.56h-18.84V9.77c0-5.11,4.15-9.27,9.27-9.27h0Z"/>
  <path class="st1" d="M220.29.5h.16c5.15,0,9.34,4.18,9.34,9.34v240.49h-18.84V9.84c0-5.15,4.18-9.34,9.34-9.34Z"/>
  <path class="st0" d="M170.39,202.93c-38.14-38.8-37.59-101.16,1.2-139.29"/>
  <path class="st0" d="M47.87,237.67C-8.16,183.2-9.43,93.61,45.04,37.58"/>
  <path class="st0" d="M109.57,222.57c-46.54-47.35-45.88-123.47,1.47-170.02"/>
  <path class="st0" d="M392.88,63.57c38.79,38.13,39.34,100.5,1.2,139.29"/>
  <path class="st0" d="M519.43,37.52c54.47,56.03,53.2,145.62-2.83,200.09"/>
  <path class="st0" d="M453.43,52.49c47.35,46.54,48.02,122.66,1.47,170.02"/>
</svg>