<?xml version="1.0" encoding="UTF-8"?>
<svg xmlns="http://www.w3.org/2000/svg" viewBox="0 0 571.95 438.55">
  <defs>
    <style>
      .cls-1 {
        fill: none;
        stroke: #fff;
        stroke-linecap: round;
        stroke-linejoin: round;
        stroke-width: 10px;
      }

      .cls-2 {
        fill: #fff;
      }
    </style>
  </defs>
  <g id="_Слой_2" data-name="Слой 2">
    <path class="cls-1" d="M5.95,364.54c-.81,4.46-4.06,25.03,9,44,16.84,24.46,47.22,24.9,54,25,36.44.55,60.52-26.68,67-34,14.68-16.6,14.82-27.15,27-55,22.96-52.48,38.13-50.8,70-113,15.98-31.2,24.25-47.7,28-73,2.85-19.23,8.53-57.58-14-95-18.49-30.7-52.02-54.24-87-58C100.48-.85,34.27,49.69,14.95,131.54"/>
    <path class="cls-1" d="M62.87,180.78c3.93.06,43.68,1.23,61.95,29.91,19.23,30.19,8.03,80.43-34.43,108.81"/>
    <path class="cls-1" d="M183.95,92.54c-11.53-2.75-25.94-4.4-42-2-41.6,6.22-82.69,35.89-95,75-8.64,27.45,6.19,29.78-1,72-6.94,40.74-24.58,61.1-14,77,6.53,9.81,20.14,12.4,31,13"/>
  </g>
  <g id="_Слой_3" data-name="Слой 3">
    <path class="cls-1" d="M445.47,317.14c-47.01-27.38-62.91-87.69-35.53-134.69"/>
    <path class="cls-1" d="M336.42,382.93c-68.4-37.79-93.22-123.88-55.43-192.28"/>
    <path class="cls-1" d="M391.97,352.11c-57.37-33.42-76.78-107.03-43.36-164.4"/>
    <circle class="cls-2" cx="513.45" cy="228.04" r="58.5"/>
    <rect class="cls-2" x="540.95" y="44.54" width="31" height="183"/>
  </g>
</svg>