<?xml version="1.0" encoding="UTF-8"?>
<svg xmlns="http://www.w3.org/2000/svg" viewBox="0 0 900.06 435">
  <defs>
    <style>
      .cls-1 {
        fill: none;
        stroke: #fff;
        stroke-linecap: round;
        stroke-linejoin: round;
        stroke-width: 10px;
      }

      .cls-2 {
        fill: #fff;
      }
    </style>
  </defs>
  <g id="_Слой_1" data-name="Слой 1">
    <path class="cls-1" d="M234.83,5L95.01,263.55l-33.09,61.19L5,430h74l56.92-105.26h98.91v105.26h74V5h-74ZM169.01,263.55l65.82-121.71v121.71h-65.82Z"/>
  </g>
  <g id="_Слой_2" data-name="Слой 2">
    <rect class="cls-1" x="384.76" y="5" width="74" height="425"/>
    <rect class="cls-1" x="458.76" y="5" width="74" height="425"/>
    <rect class="cls-1" x="532.76" y="5" width="74" height="425"/>
    <rect class="cls-2" x="507.87" y="5" width="49.78" height="212.5"/>
    <rect class="cls-2" x="433.87" y="5" width="49.78" height="212.5"/>
  </g>
  <g id="_Слой_3" data-name="Слой 3">
    <rect class="cls-1" x="680.76" y="5" width="74" height="425"/>
    <path class="cls-1" d="M776.28,242.57c65.6,0,118.79-53.18,118.79-118.79S841.88,5,776.28,5v75.22c23.76,0,44.79,19.8,44.79,43.56s-21.02,43.31-44.79,43.31v75.48Z"/>
  </g>
</svg>